<?xml version="1.0" encoding="UTF-8"?><svg id="Layer_1" xmlns="http://www.w3.org/2000/svg" width="154" height="57" viewBox="0 0 154 57"><defs><style>.cls-1{fill:#010101;}.cls-2{fill:#f15a2c;}.cls-3{fill:#f1592b;}.cls-4,.cls-5,.cls-6{fill:#fff;}.cls-7{fill:#35944a;}.cls-5{font-size:4.43px;}.cls-5,.cls-6{font-family:Rockwell-Regular, Rockwell;}.cls-6{font-size:4.22px;}</style></defs><polygon class="cls-1" points="16.09 15.63 38.34 2.95 71.64 27.65 38.02 5.41 16.09 15.63"/><polygon class="cls-1" points="5.44 20.37 5.44 36.85 3.43 36.85 3.43 38.86 17.4 38.86 17.4 34.18 15.06 34.24 15.12 36.68 7.67 36.74 7.72 29.61 10.71 29.61 10.71 32.01 12.78 32.01 12.89 24.89 10.66 24.94 10.66 27.33 7.67 27.33 7.67 20.37 15.17 20.37 15.17 22.87 17.4 22.82 17.4 18.09 3.43 18.09 3.43 20.32 5.44 20.37"/><path class="cls-1" d="m28.86,37.4c0-1.21-.01-1.7-.02-2.91.02-.28.04-1.05,0-1.23-.3-1.59-2.42-1.89-2.55-1.91,1.98-.98,3.11-3.29,2.42-5.08-.5-1.31-1.84-2.23-3.4-2.38l-6.67-.14v1.53l1.45.06v11.89h-1.45v1.65h4.63v-1.63l-1.55.02.05-5.17h2.81c.28,0,.68-.02,1.05.2,1.7,1,1.61,1.08,1.66,1.38v5.2h3.03v-1.53l-1.45.05Zm-7.04-6.93v-5.07c1.09.03,2.19.06,3.28.09,1.18.2,2.08,1.1,2.21,2.15.16,1.3-.88,2.65-2.41,2.83h-3.08Z"/><polygon class="cls-1" points="31.65 23.75 31.65 25.4 33.08 25.4 33.02 37.2 31.65 37.2 31.65 38.88 36.18 38.88 36.18 37.31 34.73 37.27 34.83 25.4 36.27 25.4 36.27 23.75 31.65 23.75"/><path class="cls-3" d="m45.21,30.61c-1.27-1.15-2.8-1.14-3.22-1.13-.42,0-1.87.06-3.08,1.17-1.64,1.5-1.46,3.67-1.44,3.93,0,0,.2,2.31,2.01,3.54,1.02.7,2.12.73,2.58.76.57.03,1.57.07,2.52-.49.15-.1.3-.21.46-.33.58-.46,1.02-.95,1.35-1.4l-1.5-.56c-.12.15-1.18,1.39-2.84,1.31-.44-.02-1.58-.16-2.35-1.14-.55-.7-.62-1.47-.63-1.77l7.58.08s.21-2.46-1.46-3.97Zm-5.93,2.34c.07-.26.33-1.04,1.1-1.56,1.2-.81,2.56-.27,2.75-.19,1.16.48,1.61,1.52,1.71,1.75h-5.56Z"/><polygon class="cls-2" points="49.43 25.37 49.36 37.3 48.01 37.3 48.01 38.89 52.44 38.89 52.44 37.25 51.08 37.28 51.03 27.22 58 38.89 59.64 38.89 59.51 25.37 61 25.37 61 23.72 56.51 23.72 56.58 25.42 57.92 25.44 57.96 35.45 50.89 23.72 48.01 23.72 48.01 25.33 49.43 25.37"/><path class="cls-7" d="m14.87,45.25c-.27-.21-.38-.53-.28-.83.05-.16.17-.27.29-.37.04-.03.09-.05.09-.11h.01c-.02-.1-.06-.18-.08-.27-.02-.08-.09-.11-.17-.1-.33.02-.75-.21-.77-.68,0-.1,0-.2.06-.29.03-.05.03-.13-.04-.18-.03-.02-.06-.04-.09-.06-.05-.04-.1-.09-.17-.1-.08,0-.11.06-.16.09-.46.26-.92.1-1.1-.36,0-.02,0-.05,0-.07-.02-.07-.06-.12-.15-.11-.06,0-.13,0-.19,0-.1,0-.14.04-.17.13-.13.5-.73.7-1.13.38-.1-.08-.13-.09-.26,0-.13.09-.22.15-.15.35.09.29.01.57-.25.77-.14.11-.3.16-.48.14-.08-.01-.13.02-.16.1-.02.05-.04.1-.06.16-.04.12-.04.15.08.24.42.32.44.92,0,1.19-.1.06-.11.1-.07.22.01.04.02.08.03.12.04.11.07.15.2.15.32-.01.65.2.73.55.03.14.03.29-.03.43-.04.08-.03.15.05.2.02.01.04.02.06.03.18.13.17.12.37.01.42-.22.92-.12,1.09.43,0,0,0,0,0,0,.06.19.22.11.35.12.09,0,.14-.04.16-.14.05-.31.46-.58.78-.53.14.02.27.06.37.17.06.06.12.06.19.01.06-.04.11-.08.17-.12.08-.06.07-.12.05-.19-.12-.39.02-.75.38-.93.1-.05.22-.06.34-.05.09,0,.15-.02.17-.12,0-.04.03-.07.04-.11.05-.14.04-.17-.08-.26Zm-1.12-.38c-.14,1.05-1.26,1.61-2.15,1.22-1-.44-1.26-1.73-.49-2.52.27-.27.59-.42.96-.46h.01c.17,0,.35,0,.52.04.74.19,1.26.93,1.15,1.72Z"/><path class="cls-2" d="m8.06,42.75v-.53h.61v1.54h-.62c-.16-.31-.37-.55-.65-.72s-.57-.26-.9-.26-.6.08-.85.25c-.25.17-.44.39-.58.67-.14.28-.21.58-.21.9s.07.64.22.92.35.5.6.67c.25.17.54.25.85.25.38,0,.72-.12,1.02-.35.3-.23.51-.57.65-1l.61.32c-.17.54-.46.95-.88,1.24-.42.29-.91.44-1.48.44-.47,0-.88-.11-1.24-.33-.36-.22-.64-.52-.84-.9s-.3-.79-.3-1.23c0-.49.1-.92.31-1.3.2-.38.49-.67.85-.88.36-.21.77-.31,1.24-.31.31,0,.6.05.86.16.26.1.51.25.73.45Z"/><path class="cls-2" d="m18.63,42.82h-.68v-.6h1.97v.6h-.7v4.25h-.75l-2.3-4.1v3.45h.69v.6h-1.97v-.6h.68v-3.6h-.68v-.6h1.64l2.11,3.73v-3.13Z"/><path class="cls-2" d="m22.77,42.52v-.33h.59v1.46h-.59v-.33c-.25-.37-.59-.56-1.02-.56-.26,0-.47.05-.61.16-.14.11-.21.26-.21.46s.07.34.2.44c.13.1.34.18.61.25l.56.15c.36.1.63.22.83.38.19.16.32.32.38.5.06.18.09.37.09.59,0,.44-.14.78-.41,1.04-.27.25-.64.38-1.09.38s-.83-.16-1.19-.48v.4h-.6v-1.75h.6v.42c.29.53.66.79,1.12.79.27,0,.48-.07.63-.21s.22-.33.22-.59c0-.34-.24-.58-.73-.72l-.6-.17c-.43-.12-.75-.29-.96-.5s-.31-.49-.31-.83c0-.42.12-.75.37-.98.25-.23.59-.35,1.03-.35.38,0,.74.13,1.07.38Z"/><path class="cls-2" d="m27.33,43.97v-1.16h-.99v3.6h.62v.6h-1.96v-.6h.61v-3.6h-.98v1.16h-.59v-1.76h3.89v1.76h-.59Z"/><path class="cls-2" d="m31.95,43.48c0,.31-.09.57-.26.78-.17.21-.42.35-.73.43l.85,1.74h.59v.6h-1.08l-1.06-2.24h-.67v1.64h.61v.6h-1.99v-.6h.65v-3.6h-.65v-.6h1.99c.62,0,1.06.1,1.34.3.27.2.41.52.41.96Zm-.75-.01c0-.22-.07-.39-.21-.49-.14-.1-.36-.16-.67-.16h-.74v1.36h.7c.31,0,.54-.05.69-.16.15-.11.23-.29.23-.55Z"/><path class="cls-2" d="m33.93,42.82v2.45c0,.43.08.75.25.95.16.2.41.3.72.3s.57-.1.74-.3c.17-.2.25-.51.25-.94v-2.45h-.56v-.6h1.88v.6h-.6v2.52c0,.57-.14,1.01-.43,1.31s-.72.45-1.28.45-.99-.15-1.27-.45c-.28-.3-.43-.75-.43-1.36v-2.48h-.59v-.6h1.89v.6h-.57Z"/><path class="cls-2" d="m41.66,42.75v-.53h.61v1.54h-.62c-.16-.31-.37-.55-.65-.72s-.57-.26-.9-.26-.6.08-.85.25c-.25.17-.44.39-.58.67-.14.28-.21.58-.21.9s.07.64.22.92.35.5.6.67c.25.17.54.25.85.25.38,0,.72-.12,1.02-.35.3-.23.51-.57.65-1l.61.32c-.17.54-.46.95-.88,1.24-.42.29-.91.44-1.48.44-.47,0-.88-.11-1.24-.33-.36-.22-.64-.52-.84-.9s-.3-.79-.3-1.23c0-.49.1-.92.31-1.3.2-.38.49-.67.85-.88.36-.21.77-.31,1.24-.31.31,0,.6.05.86.16.26.1.51.25.73.45Z"/><path class="cls-2" d="m46.24,43.97v-1.16h-.99v3.6h.62v.6h-1.96v-.6h.61v-3.6h-.98v1.16h-.59v-1.76h3.89v1.76h-.59Z"/><path class="cls-2" d="m48.5,42.82v3.6h.52v.6h-1.77v-.6h.52v-3.6h-.52v-.6h1.77v.6h-.52Z"/><path class="cls-2" d="m54.53,44.61c0,.49-.11.92-.32,1.3-.22.38-.51.67-.89.88s-.81.31-1.3.31-.9-.11-1.27-.32-.66-.51-.87-.9c-.21-.38-.31-.81-.31-1.29s.11-.9.32-1.27c.21-.37.5-.66.87-.87s.79-.31,1.27-.31.93.11,1.31.32c.38.22.67.51.88.88.21.37.31.79.31,1.26Zm-2.48,1.85c.33,0,.62-.09.88-.26s.46-.4.6-.68.21-.59.21-.91-.07-.63-.22-.92c-.15-.28-.36-.5-.62-.67-.26-.16-.56-.24-.89-.24s-.61.08-.86.24c-.25.16-.44.38-.58.65-.14.28-.21.59-.21.93,0,.36.07.68.21.97.14.28.33.5.59.66.26.16.56.24.9.24Z"/><path class="cls-2" d="m58.74,42.82h-.68v-.6h1.97v.6h-.7v4.25h-.75l-2.3-4.1v3.45h.69v.6h-1.97v-.6h.68v-3.6h-.68v-.6h1.64l2.11,3.73v-3.13Z"/><rect class="cls-2" x="4.07" y="49.44" width="27.13" height="4.61"/><text class="cls-5" transform="translate(6.53 53.16)"><tspan x="0" y="0">Plan Better</tspan></text><rect class="cls-1" x="31.65" y="49.44" width="27.13" height="4.61"/><text class="cls-6" transform="translate(32.39 53.23)"><tspan x="0" y="0">Build Better</tspan></text><polygon class="cls-1" points="16.09 15.63 38.34 2.95 71.64 27.65 38.02 5.41 16.09 15.63"/><polygon class="cls-1" points="5.44 20.37 5.44 36.85 3.43 36.85 3.43 38.86 17.4 38.86 17.4 34.18 15.06 34.24 15.12 36.68 7.67 36.74 7.72 29.61 10.71 29.61 10.71 32.01 12.78 32.01 12.89 24.89 10.66 24.94 10.66 27.33 7.67 27.33 7.67 20.37 15.17 20.37 15.17 22.87 17.4 22.82 17.4 18.09 3.43 18.09 3.43 20.32 5.44 20.37"/><path class="cls-1" d="m28.86,37.4c0-1.21-.01-1.7-.02-2.91.02-.28.04-1.05,0-1.23-.3-1.59-2.42-1.89-2.55-1.91,1.98-.98,3.11-3.29,2.42-5.08-.5-1.31-1.84-2.23-3.4-2.38l-6.67-.14v1.53l1.45.06v11.89h-1.45v1.65h4.63v-1.63l-1.55.02.05-5.17h2.81c.28,0,.68-.02,1.05.2,1.7,1,1.61,1.08,1.66,1.38v5.2h3.03v-1.53l-1.45.05Zm-7.04-6.93v-5.07c1.09.03,2.19.06,3.28.09,1.18.2,2.08,1.1,2.21,2.15.16,1.3-.88,2.65-2.41,2.83h-3.08Z"/><polygon class="cls-1" points="31.65 23.75 31.65 25.4 33.08 25.4 33.02 37.2 31.65 37.2 31.65 38.88 36.18 38.88 36.18 37.31 34.73 37.27 34.83 25.4 36.27 25.4 36.27 23.75 31.65 23.75"/><path class="cls-3" d="m45.21,30.61c-1.27-1.15-2.8-1.14-3.22-1.13-.42,0-1.87.06-3.08,1.17-1.64,1.5-1.46,3.67-1.44,3.93,0,0,.2,2.31,2.01,3.54,1.02.7,2.12.73,2.58.76.57.03,1.57.07,2.52-.49.15-.1.3-.21.46-.33.58-.46,1.02-.95,1.35-1.4l-1.5-.56c-.12.15-1.18,1.39-2.84,1.31-.44-.02-1.58-.16-2.35-1.14-.55-.7-.62-1.47-.63-1.77l7.58.08s.21-2.46-1.46-3.97Zm-5.93,2.34c.07-.26.33-1.04,1.1-1.56,1.2-.81,2.56-.27,2.75-.19,1.16.48,1.61,1.52,1.71,1.75h-5.56Z"/><polygon class="cls-2" points="49.43 25.37 49.36 37.3 48.01 37.3 48.01 38.89 52.44 38.89 52.44 37.25 51.08 37.28 51.03 27.22 58 38.89 59.64 38.89 59.51 25.37 61 25.37 61 23.72 56.51 23.72 56.58 25.42 57.92 25.44 57.96 35.45 50.89 23.72 48.01 23.72 48.01 25.33 49.43 25.37"/><path class="cls-7" d="m14.87,45.25c-.27-.21-.38-.53-.28-.83.05-.16.17-.27.29-.37.04-.03.09-.05.09-.11h.01c-.02-.1-.06-.18-.08-.27-.02-.08-.09-.11-.17-.1-.33.02-.75-.21-.77-.68,0-.1,0-.2.06-.29.03-.05.03-.13-.04-.18-.03-.02-.06-.04-.09-.06-.05-.04-.1-.09-.17-.1-.08,0-.11.06-.16.09-.46.26-.92.1-1.1-.36,0-.02,0-.05,0-.07-.02-.07-.06-.12-.15-.11-.06,0-.13,0-.19,0-.1,0-.14.04-.17.13-.13.5-.73.7-1.13.38-.1-.08-.13-.09-.26,0-.13.09-.22.15-.15.35.09.29.01.57-.25.77-.14.11-.3.16-.48.14-.08-.01-.13.02-.16.1-.02.05-.04.1-.06.16-.04.12-.04.15.08.24.42.32.44.92,0,1.19-.1.06-.11.1-.07.22.01.04.02.08.03.12.04.11.07.15.2.15.32-.01.65.2.73.55.03.14.03.29-.03.43-.04.08-.03.15.05.2.02.01.04.02.06.03.18.13.17.12.37.01.42-.22.92-.12,1.09.43,0,0,0,0,0,0,.06.19.22.11.35.12.09,0,.14-.04.16-.14.05-.31.46-.58.78-.53.14.02.27.06.37.17.06.06.12.06.19.01.06-.04.11-.08.17-.12.08-.06.07-.12.05-.19-.12-.39.02-.75.38-.93.1-.05.22-.06.34-.05.09,0,.15-.02.17-.12,0-.04.03-.07.04-.11.05-.14.04-.17-.08-.26Zm-1.12-.38c-.14,1.05-1.26,1.61-2.15,1.22-1-.44-1.26-1.73-.49-2.52.27-.27.59-.42.96-.46h.01c.17,0,.35,0,.52.04.74.19,1.26.93,1.15,1.72Z"/><path class="cls-2" d="m8.06,42.75v-.53h.61v1.54h-.62c-.16-.31-.37-.55-.65-.72s-.57-.26-.9-.26-.6.08-.85.25c-.25.17-.44.39-.58.67-.14.28-.21.58-.21.9s.07.64.22.92.35.5.6.67c.25.17.54.25.85.25.38,0,.72-.12,1.02-.35.3-.23.51-.57.65-1l.61.32c-.17.54-.46.95-.88,1.24-.42.29-.91.44-1.48.44-.47,0-.88-.11-1.24-.33-.36-.22-.64-.52-.84-.9s-.3-.79-.3-1.23c0-.49.1-.92.31-1.3.2-.38.49-.67.85-.88.36-.21.77-.31,1.24-.31.31,0,.6.05.86.16.26.1.51.25.73.45Z"/><path class="cls-2" d="m18.63,42.82h-.68v-.6h1.97v.6h-.7v4.25h-.75l-2.3-4.1v3.45h.69v.6h-1.97v-.6h.68v-3.6h-.68v-.6h1.64l2.11,3.73v-3.13Z"/><path class="cls-2" d="m22.77,42.52v-.33h.59v1.46h-.59v-.33c-.25-.37-.59-.56-1.02-.56-.26,0-.47.05-.61.16-.14.11-.21.26-.21.46s.07.34.2.44c.13.1.34.18.61.25l.56.15c.36.1.63.22.83.38.19.16.32.32.38.5.06.18.09.37.09.59,0,.44-.14.78-.41,1.04-.27.25-.64.38-1.09.38s-.83-.16-1.19-.48v.4h-.6v-1.75h.6v.42c.29.53.66.79,1.12.79.27,0,.48-.07.63-.21s.22-.33.22-.59c0-.34-.24-.58-.73-.72l-.6-.17c-.43-.12-.75-.29-.96-.5s-.31-.49-.31-.83c0-.42.12-.75.37-.98.25-.23.59-.35,1.03-.35.38,0,.74.13,1.07.38Z"/><path class="cls-2" d="m27.33,43.97v-1.16h-.99v3.6h.62v.6h-1.96v-.6h.61v-3.6h-.98v1.16h-.59v-1.76h3.89v1.76h-.59Z"/><path class="cls-2" d="m31.95,43.48c0,.31-.09.57-.26.78-.17.21-.42.35-.73.43l.85,1.74h.59v.6h-1.08l-1.06-2.24h-.67v1.64h.61v.6h-1.99v-.6h.65v-3.6h-.65v-.6h1.99c.62,0,1.06.1,1.34.3.27.2.41.52.41.96Zm-.75-.01c0-.22-.07-.39-.21-.49-.14-.1-.36-.16-.67-.16h-.74v1.36h.7c.31,0,.54-.05.69-.16.15-.11.23-.29.23-.55Z"/><path class="cls-2" d="m33.93,42.82v2.45c0,.43.08.75.25.95.16.2.41.3.72.3s.57-.1.74-.3c.17-.2.25-.51.25-.94v-2.45h-.56v-.6h1.88v.6h-.6v2.52c0,.57-.14,1.01-.43,1.31s-.72.45-1.28.45-.99-.15-1.27-.45c-.28-.3-.43-.75-.43-1.36v-2.48h-.59v-.6h1.89v.6h-.57Z"/><path class="cls-2" d="m41.66,42.75v-.53h.61v1.54h-.62c-.16-.31-.37-.55-.65-.72s-.57-.26-.9-.26-.6.08-.85.25c-.25.17-.44.39-.58.67-.14.28-.21.58-.21.9s.07.64.22.92.35.5.6.67c.25.17.54.25.85.25.38,0,.72-.12,1.02-.35.3-.23.51-.57.65-1l.61.32c-.17.54-.46.95-.88,1.24-.42.29-.91.44-1.48.44-.47,0-.88-.11-1.24-.33-.36-.22-.64-.52-.84-.9s-.3-.79-.3-1.23c0-.49.1-.92.31-1.3.2-.38.49-.67.85-.88.36-.21.77-.31,1.24-.31.31,0,.6.05.86.16.26.1.51.25.73.45Z"/><path class="cls-2" d="m46.24,43.97v-1.16h-.99v3.6h.62v.6h-1.96v-.6h.61v-3.6h-.98v1.16h-.59v-1.76h3.89v1.76h-.59Z"/><path class="cls-2" d="m48.5,42.82v3.6h.52v.6h-1.77v-.6h.52v-3.6h-.52v-.6h1.77v.6h-.52Z"/><path class="cls-2" d="m54.53,44.61c0,.49-.11.92-.32,1.3-.22.38-.51.67-.89.88s-.81.31-1.3.31-.9-.11-1.27-.32-.66-.51-.87-.9c-.21-.38-.31-.81-.31-1.29s.11-.9.32-1.27c.21-.37.5-.66.87-.87s.79-.31,1.27-.31.93.11,1.31.32c.38.22.67.51.88.88.21.37.31.79.31,1.26Zm-2.48,1.85c.33,0,.62-.09.88-.26s.46-.4.6-.68.21-.59.21-.91-.07-.63-.22-.92c-.15-.28-.36-.5-.62-.67-.26-.16-.56-.24-.89-.24s-.61.08-.86.24c-.25.16-.44.38-.58.65-.14.28-.21.59-.21.93,0,.36.07.68.21.97.14.28.33.5.59.66.26.16.56.24.9.24Z"/><path class="cls-2" d="m58.74,42.82h-.68v-.6h1.97v.6h-.7v4.25h-.75l-2.3-4.1v3.45h.69v.6h-1.97v-.6h.68v-3.6h-.68v-.6h1.64l2.11,3.73v-3.13Z"/><rect class="cls-2" x="4.07" y="49.44" width="27.13" height="4.61"/><text class="cls-5" transform="translate(6.53 53.16)"><tspan x="0" y="0">Plan Better</tspan></text><rect class="cls-1" x="31.65" y="49.44" width="27.13" height="4.61"/><text class="cls-6" transform="translate(32.39 53.23)"><tspan x="0" y="0">Build Better</tspan></text><path class="cls-4" d="m99.06,20.39v-.94h-1.99v1.48h1.61v1.08h-1.61v1.69h1.99v-.95h1.23v2.04h-5.67v-1.09h.78v-4.25h-.78v-1.09h5.67v2.04h-1.23Z"/><path class="cls-4" d="m106.79,20.11c0,.39-.09.72-.28.99s-.46.49-.83.65l1.04,1.94h.83v1.09h-1.96l-1.45-2.81h-.73v1.72h.81v1.09h-3.37v-1.09h.88v-4.25h-.88v-1.09h3.67c.71,0,1.27.15,1.67.45.4.3.6.73.6,1.3Zm-1.75.07c0-.24-.08-.43-.24-.55-.16-.12-.37-.18-.64-.18h-.76v1.49h.61c.68,0,1.02-.25,1.02-.76Z"/><path class="cls-4" d="m110.32,19.45v4.25h.99v1.09h-3.64v-1.09h.97v-4.25h-.97v-1.09h3.64v1.09h-.99Z"/><path class="cls-4" d="m116.17,20.39v-.94h-1.99v1.48h1.61v1.08h-1.61v1.69h1.99v-.95h1.23v2.04h-5.67v-1.09h.78v-4.25h-.78v-1.09h5.67v2.04h-1.23Z"/><path class="cls-4" d="m123.06,19.45h-.83v-1.09h2.87v1.09h-.9v5.38h-1.42l-2.78-4.77v3.64h.81v1.09h-2.82v-1.09h.87v-4.25h-.87v-1.09h2.7l2.37,4.02v-2.93Z"/><path class="cls-4" d="m79.58,29.99v-.5h1.09v2.26h-1.09c-.32-.82-.86-1.23-1.61-1.23-.37,0-.7.1-.99.29s-.51.46-.67.79c-.16.33-.24.71-.24,1.11,0,.38.08.73.23,1.05s.37.57.64.76c.27.19.59.28.94.28.44,0,.82-.15,1.14-.46s.54-.7.65-1.2l1.27.6c-.48,1.49-1.54,2.24-3.18,2.24-.71,0-1.32-.14-1.85-.41-.53-.27-.93-.65-1.22-1.15-.29-.5-.43-1.08-.43-1.75,0-.63.15-1.2.44-1.7.29-.5.7-.9,1.21-1.18s1.09-.43,1.74-.43c.78,0,1.42.2,1.93.6Z"/><path class="cls-4" d="m81.56,32.7c0-.65.15-1.23.45-1.72s.72-.89,1.26-1.16,1.17-.42,1.87-.42,1.33.14,1.87.42.96.67,1.25,1.17c.3.5.45,1.07.45,1.72s-.15,1.23-.45,1.73c-.3.5-.72.89-1.26,1.17-.54.28-1.16.41-1.86.41s-1.3-.14-1.85-.41c-.54-.28-.97-.67-1.28-1.17-.31-.5-.46-1.08-.46-1.73Zm5.36,0c0-.39-.07-.75-.21-1.07-.14-.32-.35-.57-.62-.76s-.58-.28-.95-.28-.68.09-.94.28-.47.44-.62.76c-.14.32-.22.68-.22,1.07,0,.41.07.78.22,1.1.15.33.35.58.62.77.27.19.58.28.93.28s.68-.09.95-.28c.27-.19.48-.44.62-.77.14-.33.21-.69.21-1.1Z"/><path class="cls-4" d="m94.28,30.59h-.83v-1.09h2.87v1.09h-.9v5.38h-1.42l-2.78-4.77v3.64h.81v1.09h-2.82v-1.09h.87v-4.25h-.87v-1.09h2.7l2.37,4.02v-2.93Z"/><path class="cls-4" d="m99.59,30.03v-.53h1.09v1.95h-1.09c-.04-.31-.15-.55-.3-.71s-.36-.24-.61-.24c-.18,0-.33.05-.45.15s-.19.22-.19.38c0,.13.04.25.12.35.08.1.18.18.31.25.12.07.31.16.56.27l.26.11c.57.25.99.53,1.28.86s.43.74.43,1.24c0,.59-.17,1.06-.51,1.4-.34.34-.79.51-1.37.51s-.99-.21-1.3-.63v.55h-1.09v-2.19h1.09c.02.38.12.67.29.86.17.2.41.3.7.3.2,0,.36-.07.5-.2.13-.13.2-.3.2-.49s-.08-.37-.23-.53-.42-.32-.79-.48c-.63-.28-1.09-.58-1.38-.9-.29-.32-.43-.69-.43-1.11,0-.33.08-.63.23-.9.15-.27.36-.48.62-.64.27-.16.56-.23.87-.23.25,0,.48.05.68.15s.37.25.51.45Z"/><path class="cls-4" d="m106.22,32.09v-1.49h-1v4.25h.96v1.09h-3.61v-1.09h.98v-4.25h-.98v1.49h-1.09v-2.59h5.82v2.59h-1.08Z"/><path class="cls-4" d="m113.77,31.25c0,.39-.09.72-.28.99-.18.27-.46.49-.83.65l1.04,1.94h.83v1.09h-1.96l-1.45-2.81h-.73v1.72h.81v1.09h-3.37v-1.09h.88v-4.25h-.88v-1.09h3.67c.71,0,1.27.15,1.67.45.4.3.6.74.6,1.3Zm-1.75.07c0-.25-.08-.43-.24-.55s-.37-.18-.64-.18h-.76v1.49h.61c.68,0,1.02-.25,1.02-.76Z"/><path class="cls-4" d="m116.74,30.59v3c0,.36.03.63.1.82.07.19.16.33.28.4.12.07.28.11.47.11.3,0,.52-.1.66-.3.14-.2.22-.56.22-1.07v-2.95h-.62v-1.09h2.57v1.09h-.79v3.26c0,.75-.17,1.3-.51,1.64s-.91.51-1.7.51c-.57,0-1.02-.08-1.36-.23s-.59-.4-.75-.76c-.16-.36-.24-.84-.24-1.46v-2.97h-.76v-1.09h3.07v1.09h-.64Z"/><path class="cls-4" d="m126.1,29.99v-.5h1.09v2.26h-1.09c-.32-.82-.86-1.23-1.61-1.23-.37,0-.7.1-.99.29s-.51.46-.67.79c-.16.33-.24.71-.24,1.11,0,.38.08.73.23,1.05s.37.57.64.76c.27.19.59.28.94.28.44,0,.82-.15,1.14-.46s.54-.7.65-1.2l1.27.6c-.48,1.49-1.54,2.24-3.18,2.24-.71,0-1.32-.14-1.85-.41-.53-.27-.93-.65-1.22-1.15-.29-.5-.43-1.08-.43-1.75,0-.63.15-1.2.44-1.7.29-.5.7-.9,1.21-1.18s1.09-.43,1.74-.43c.78,0,1.42.2,1.93.6Z"/><path class="cls-4" d="m132.76,32.09v-1.49h-1v4.25h.96v1.09h-3.61v-1.09h.98v-4.25h-.98v1.49h-1.09v-2.59h5.82v2.59h-1.08Z"/><path class="cls-4" d="m136.92,30.59v4.25h.99v1.09h-3.64v-1.09h.97v-4.25h-.97v-1.09h3.64v1.09h-.99Z"/><path class="cls-4" d="m138.25,32.7c0-.65.15-1.23.45-1.72s.72-.89,1.26-1.16,1.17-.42,1.87-.42,1.33.14,1.87.42.96.67,1.25,1.17c.3.5.45,1.07.45,1.72s-.15,1.23-.45,1.73c-.3.5-.72.89-1.26,1.17-.54.28-1.16.41-1.86.41s-1.3-.14-1.85-.41c-.54-.28-.97-.67-1.28-1.17-.31-.5-.46-1.08-.46-1.73Zm5.36,0c0-.39-.07-.75-.21-1.07-.14-.32-.35-.57-.62-.76s-.58-.28-.95-.28-.68.09-.94.28-.47.44-.62.76c-.14.32-.22.68-.22,1.07,0,.41.07.78.22,1.1.15.33.35.58.62.77.27.19.58.28.93.28s.68-.09.95-.28c.27-.19.48-.44.62-.77.14-.33.21-.69.21-1.1Z"/><path class="cls-4" d="m150.96,30.59h-.83v-1.09h2.87v1.09h-.9v5.38h-1.42l-2.78-4.77v3.64h.81v1.09h-2.82v-1.09h.87v-4.25h-.87v-1.09h2.7l2.37,4.02v-2.93Z"/><path class="cls-4" d="m92.15,42.66v4.25h1.9v-1.98h1.26v3.08h-5.75v-1.09h.92v-4.25h-.92v-1.09h3.54v1.09h-.94Z"/><path class="cls-4" d="m98.19,42.66v4.25h.99v1.09h-3.64v-1.09h.97v-4.25h-.97v-1.09h3.64v1.09h-.99Z"/><path class="cls-4" d="m105.62,41.56h3.29v1.09h-.83v4.25h.83v1.09h-3.24v-1.09h.78v-4.25h-.15l-1.99,5.34h-.69l-2.02-5.34h-.15v4.25h.83v1.09h-2.72v-1.09h.84v-4.25h-.84v-1.09h3.24l1.41,3.76,1.42-3.76Z"/><path class="cls-4" d="m111.94,42.66v4.25h.99v1.09h-3.64v-1.09h.97v-4.25h-.97v-1.09h3.64v1.09h-.99Z"/><path class="cls-4" d="m118.08,44.15v-1.49h-1v4.25h.96v1.09h-3.61v-1.09h.98v-4.25h-.98v1.49h-1.09v-2.59h5.82v2.59h-1.08Z"/><path class="cls-4" d="m124.21,43.6v-.94h-1.99v1.48h1.61v1.08h-1.61v1.69h1.99v-.95h1.23v2.04h-5.67v-1.09h.78v-4.25h-.78v-1.09h5.67v2.04h-1.23Z"/><path class="cls-4" d="m132.81,44.86c0,.67-.14,1.25-.43,1.72-.29.47-.68.82-1.18,1.06s-1.09.36-1.75.36h-3.55v-1.09h.98v-4.25h-.98v-1.09h3.47c.66,0,1.25.11,1.77.34.51.23.92.59,1.22,1.08.3.49.45,1.12.45,1.88Zm-1.75-.06c0-.71-.16-1.24-.49-1.6-.33-.36-.81-.54-1.45-.54h-.57v4.25h.39c.58,0,1.02-.1,1.33-.29.31-.2.52-.44.62-.74.11-.3.16-.66.16-1.07Z"/></svg>