<?xml version="1.0" encoding="utf-8"?>
<!-- Generator: Adobe Illustrator 28.0.0, SVG Export Plug-In . SVG Version: 6.00 Build 0)  -->
<svg version="1.1" id="Layer_1" xmlns="http://www.w3.org/2000/svg" xmlns:xlink="http://www.w3.org/1999/xlink" x="0px" y="0px"
	 width="154" height="57" viewBox="0 0 154 57" style="enable-background:new 0 0 154 57;" xml:space="preserve">
<style type="text/css">
	.st0{fill:#0067E2;}
	.st1{fill:#E00000;}
</style>
<g>
	<g>
		<path class="st0" d="M8.4,12.6h4.3c1.4,0,2.6,0.4,3.3,1c0.7,0.7,1,1.7,1,3.1V18c0,2-0.7,3.1-2,3.7l0,0c0.7,0.3,1.2,0.7,1.4,1.3
			c0.3,0.7,0.4,1.6,0.4,2.6v3.3c0,0.5,0,0.9,0,1.3c0,0.3,0.1,0.7,0.3,0.9h-3c-0.1-0.3-0.1-0.5-0.3-0.8c-0.1-0.3,0-0.8,0-1.4v-3.4
			c0-0.8-0.1-1.4-0.4-1.7c-0.3-0.4-0.8-0.5-1.4-0.5h-0.8v7.9H8.4V12.6L8.4,12.6z M12.5,20.6c0.5,0,1-0.1,1.3-0.4
			c0.3-0.3,0.4-0.8,0.4-1.4v-1.4c0-0.7-0.1-1.2-0.4-1.4c-0.3-0.3-0.7-0.4-1.2-0.4h-1.3v5.2L12.5,20.6L12.5,20.6z"/>
		<path class="st0" d="M19,12.6h7.9v2.6h-5v4.8h3.9v2.6h-3.9v5.6h5V31H19V12.6L19,12.6z"/>
		<path class="st0" d="M28.7,12.6h7.6v2.6h-4.7v5.1h3.8V23h-3.8v8h-2.9L28.7,12.6L28.7,12.6z"/>
		<path class="st0" d="M37.8,12.6h2.9v18.5h-2.9C37.8,31.1,37.8,12.6,37.8,12.6z"/>
		<path class="st0" d="M42.9,12.6h3.7l2.9,11l0,0v-11H52v18.5h-3l-3.5-13.5l0,0v13.5h-2.6V12.6L42.9,12.6z"/>
		<path class="st0" d="M54.1,12.6H62v2.6h-5v4.8h3.9v2.6H57v5.6h5V31h-7.9V12.6L54.1,12.6z"/>
		<path class="st0" d="M63.7,12.6h4.5c1.4,0,2.5,0.4,3.3,1.2s1,2,1,3.4v9.3c0,1.4-0.4,2.6-1,3.4c-0.8,0.8-1.8,1.2-3.3,1.2h-4.5V12.6
			L63.7,12.6z M68,28.5c0.5,0,0.8-0.1,1-0.4c0.3-0.3,0.4-0.8,0.4-1.3v-9.7c0-0.7-0.1-1-0.4-1.3c-0.3-0.3-0.7-0.4-1-0.4h-1.4v13.2
			L68,28.5L68,28.5z"/>
		<path class="st0" d="M78.6,12.6h7.7v2.6h-4.7v5.1h3.8V23h-3.8v8h-2.9L78.6,12.6L78.6,12.6z"/>
		<path class="st0" d="M87.7,12.6h2.9v18.5h-2.9V12.6z"/>
		<path class="st0" d="M95,15.2h-3v-2.6h9v2.6h-3.1v15.9H95V15.2L95,15.2z"/>
		<path class="st0" d="M102.3,12.6h3.7l2.9,11l0,0v-11h2.6v18.5h-3L105,17.6l0,0v13.5h-2.6V12.6z"/>
		<path class="st0" d="M113.6,12.6h7.9v2.6h-5v4.8h3.9v2.6h-3.9v5.6h5V31h-7.9V12.6L113.6,12.6z"/>
		<path class="st0" d="M123.8,30.2c-0.8-0.8-1-2-1-3.4v-1h2.8V27c0,1.2,0.5,1.8,1.4,1.8c0.5,0,0.9-0.1,1.2-0.4
			c0.3-0.3,0.4-0.8,0.4-1.4c0-0.8-0.1-1.4-0.5-2.1c-0.4-0.7-1-1.3-2-2.1c-1.2-1-2.1-2-2.5-2.9c-0.5-0.9-0.7-1.8-0.7-2.9
			c0-1.4,0.4-2.6,1-3.4c0.8-0.8,1.8-1.2,3.3-1.2s2.5,0.4,3.1,1.2c0.7,0.8,1,2,1,3.4v0.8h-2.8v-0.9c0-0.7-0.1-1-0.4-1.4
			c-0.3-0.3-0.7-0.4-1-0.4c-0.9,0-1.4,0.7-1.4,1.7c0,0.7,0.1,1.3,0.5,1.8c0.4,0.5,1,1.3,2,2.1c1.2,1,2.1,2,2.5,2.9
			c0.4,0.9,0.7,1.8,0.7,3c0,1.6-0.4,2.6-1.2,3.5c-0.8,0.8-1.8,1.2-3.3,1.2C125.5,31.4,124.6,31,123.8,30.2L123.8,30.2z"/>
		<path class="st0" d="M133.7,30.2c-0.8-0.8-1-2-1-3.4v-1h2.8V27c0,1.2,0.5,1.8,1.4,1.8c0.5,0,0.9-0.1,1.2-0.4
			c0.3-0.3,0.4-0.8,0.4-1.4c0-0.8-0.1-1.4-0.5-2.1c-0.4-0.7-1-1.3-2-2.1c-1.2-1-2.1-2-2.5-2.9c-0.5-0.9-0.7-1.8-0.7-2.9
			c0-1.4,0.4-2.6,1-3.4c0.8-0.8,1.8-1.2,3.3-1.2s2.5,0.4,3.1,1.2c0.7,0.8,1,2,1,3.4v0.8h-2.8v-0.9c0-0.7-0.1-1-0.4-1.4
			c-0.3-0.3-0.7-0.4-1-0.4c-0.9,0-1.4,0.7-1.4,1.7c0,0.7,0.1,1.3,0.5,1.8s1,1.3,2,2.1c1.2,1,2.1,2,2.5,2.9c0.4,0.9,0.7,1.8,0.7,3
			c0,1.6-0.4,2.6-1.2,3.5c-0.8,0.8-1.8,1.2-3.3,1.2S134.4,31,133.7,30.2L133.7,30.2z"/>
	</g>
	<rect x="3" y="33.6" class="st1" width="140" height="1.8"/>
	<g>
		<path d="M19.8,39.2h1V46h-1V39.2z"/>
		<path d="M21.6,39.2h1.6l0.7,4.8l0,0l0.7-4.8h1.6V46h-1v-5.1l0,0L24.3,46h-0.9l-0.8-5.1l0,0V46h-0.9V39.2L21.6,39.2z"/>
		<path d="M26.8,39.2h1.6c0.5,0,0.9,0.1,1.2,0.4c0.3,0.3,0.4,0.7,0.4,1.2v0.7c0,0.5-0.1,0.9-0.4,1.2c-0.3,0.3-0.7,0.4-1.2,0.4h-0.5
			v2.8h-1L26.8,39.2L26.8,39.2z M28.3,42.2c0.1,0,0.3,0,0.4-0.1c0.1-0.1,0.1-0.3,0.1-0.5v-0.8c0-0.3,0-0.4-0.1-0.5s-0.3-0.1-0.4-0.1
			h-0.5v2.1H28.3L28.3,42.2z"/>
		<path d="M30.6,39.2h1.6c0.5,0,0.9,0.1,1.2,0.4c0.3,0.3,0.4,0.7,0.4,1.2v0.4c0,0.7-0.3,1.2-0.7,1.3l0,0c0.3,0.1,0.4,0.3,0.5,0.5
			c0.1,0.3,0.1,0.7,0.1,1v1.2c0,0.1,0,0.4,0,0.5c0,0.1,0,0.3,0.1,0.4h-1c0-0.1,0-0.3-0.1-0.3c0-0.1,0-0.3,0-0.5v-1.2
			c0-0.3,0-0.5-0.1-0.7c-0.1-0.1-0.3-0.1-0.5-0.1h-0.4v2.9h-1L30.6,39.2L30.6,39.2z M32,42.1c0.3,0,0.4,0,0.5-0.1
			c0.1-0.1,0.1-0.3,0.1-0.5v-0.5c0-0.3,0-0.4-0.1-0.5c-0.1-0.1-0.3-0.1-0.4-0.1h-0.5v2H32V42.1z"/>
		<path d="M34.7,45.6c-0.3-0.3-0.4-0.7-0.4-1.3v-3.5c0-0.5,0.1-0.9,0.4-1.3c0.3-0.3,0.7-0.4,1.2-0.4c0.5,0,0.9,0.1,1.2,0.4
			c0.3,0.3,0.4,0.7,0.4,1.3v3.5c0,0.5-0.1,0.9-0.4,1.3c-0.3,0.3-0.7,0.4-1.2,0.4C35.4,46.2,35,45.9,34.7,45.6z M36.5,44.5v-3.7
			c0-0.4-0.1-0.7-0.5-0.7s-0.5,0.3-0.5,0.7v3.7c0,0.4,0.1,0.7,0.5,0.7S36.5,45,36.5,44.5z"/>
		<path d="M38,39.2h1l0.7,5.2l0,0l0.7-5.2h0.9l-1,6.8h-1.4L38,39.2z"/>
		<path d="M42,39.2h1V46h-1V39.2L42,39.2z"/>
		<path d="M43.8,39.2h1.3l1,4.1l0,0v-4.1h0.9V46h-1l-1.3-5l0,0v5h-0.9V39.2L43.8,39.2z"/>
		<path d="M48.2,45.6c-0.3-0.3-0.4-0.7-0.4-1.3v-3.5c0-0.5,0.1-0.9,0.4-1.3c0.3-0.3,0.7-0.4,1.2-0.4c0.5,0,0.9,0.1,1.2,0.4
			s0.4,0.7,0.4,1.3v0.5h-1v-0.7c0-0.4-0.1-0.7-0.5-0.7s-0.5,0.3-0.5,0.7v3.7c0,0.4,0.1,0.7,0.5,0.7s0.5-0.3,0.5-0.7V43h-0.5v-0.9H51
			v2.2c0,0.5-0.1,0.9-0.4,1.3c-0.3,0.3-0.7,0.4-1.2,0.4C48.9,46.2,48.5,45.9,48.2,45.6L48.2,45.6z"/>
		<path d="M54.1,40.3h-1v-0.9h3.3v0.9h-1V46h-1L54.1,40.3L54.1,40.3z"/>
		<path d="M56.8,39.2h1V42H59v-2.8h1V46h-1v-3h-1.2v3h-1V39.2z"/>
		<path d="M60.8,39.2h2.9v0.9h-1.8V42h1.4v0.9h-1.4V45h1.8v0.9h-2.9V39.2L60.8,39.2z"/>
		<path d="M68.2,46c-0.3,0.1-0.4,0.1-0.7,0.1c-0.5,0-0.9-0.1-1.2-0.4c-0.3-0.3-0.4-0.7-0.4-1.3v-3.5c0-0.5,0.1-0.9,0.4-1.3
			c0.3-0.3,0.7-0.4,1.2-0.4s0.9,0.1,1.2,0.4c0.3,0.3,0.4,0.7,0.4,1.3v3.5c0,0.4-0.1,0.8-0.3,1l0.1,0.1c0,0,0.1,0,0.3,0h0.1v0.9h-0.3
			C68.5,46.7,68.2,46.4,68.2,46L68.2,46z M67.9,44.5v-3.7c0-0.4-0.1-0.7-0.5-0.7c-0.4,0-0.5,0.3-0.5,0.7v3.7c0,0.4,0.1,0.7,0.5,0.7
			C67.8,45.1,67.9,45,67.9,44.5z"/>
		<path d="M70.1,45.6c-0.3-0.3-0.4-0.7-0.4-1.3v-5.1h1v5.2c0,0.3,0,0.4,0.1,0.5c0.1,0.1,0.3,0.1,0.4,0.1c0.1,0,0.3,0,0.4-0.1
			c0.1-0.1,0.1-0.3,0.1-0.5v-5.2h1v5.1c0,0.5-0.1,0.9-0.4,1.3c-0.3,0.3-0.7,0.4-1.2,0.4S70.4,45.9,70.1,45.6L70.1,45.6z"/>
		<path d="M74.4,39.2h1.4l1,6.8h-1l-0.1-1.3l0,0h-1.2L74.4,46h-1L74.4,39.2L74.4,39.2z M75.5,43.8L75,40.5l0,0l-0.5,3.3H75.5
			L75.5,43.8z"/>
		<path d="M77.5,39.2h1V45h1.7v0.9h-2.8V39.2L77.5,39.2z"/>
		<path d="M80.7,39.2h1V46h-1V39.2z"/>
		<path d="M83.5,40.3h-1v-0.9h3.3v0.9h-1V46h-1.2V40.3L83.5,40.3z"/>
		<path d="M87.2,43.1l-1.3-3.9H87l0.8,2.5l0,0l0.8-2.5h1l-1.3,3.9V46h-1L87.2,43.1L87.2,43.1z"/>
		<path d="M91.9,45.6c-0.3-0.3-0.4-0.7-0.4-1.3v-3.5c0-0.5,0.1-0.9,0.4-1.3c0.3-0.3,0.7-0.4,1.2-0.4s0.9,0.1,1.2,0.4
			c0.3,0.3,0.4,0.7,0.4,1.3v3.5c0,0.5-0.1,0.9-0.4,1.3C94,45.9,93.6,46,93,46S92.1,45.9,91.9,45.6z M93.6,44.5v-3.7
			c0-0.4-0.1-0.7-0.5-0.7c-0.4,0-0.5,0.3-0.5,0.7v3.7c0,0.4,0.1,0.7,0.5,0.7C93.4,45.1,93.6,45,93.6,44.5z"/>
		<path d="M95.4,39.2h2.8v0.9h-1.7V42h1.3v0.9h-1.3v2.9h-1L95.4,39.2L95.4,39.2z"/>
		<path d="M101.2,43.1l-1.3-3.9h1.2l0.8,2.5l0,0l0.8-2.5h1l-1.3,3.9V46h-1L101.2,43.1L101.2,43.1z"/>
		<path d="M104.2,45.6c-0.3-0.3-0.4-0.7-0.4-1.3v-3.5c0-0.5,0.1-0.9,0.4-1.3c0.3-0.3,0.7-0.4,1.2-0.4s0.9,0.1,1.2,0.4
			c0.3,0.3,0.4,0.7,0.4,1.3v3.5c0,0.5-0.1,0.9-0.4,1.3c-0.3,0.3-0.7,0.4-1.2,0.4C104.8,46.2,104.4,45.9,104.2,45.6z M105.9,44.5
			v-3.7c0-0.4-0.1-0.7-0.5-0.7c-0.4,0-0.5,0.3-0.5,0.7v3.7c0,0.4,0.1,0.7,0.5,0.7C105.8,45.1,105.9,45,105.9,44.5z"/>
		<path d="M108.1,45.6c-0.3-0.3-0.4-0.7-0.4-1.3v-5.1h1v5.2c0,0.3,0,0.4,0.1,0.5c0.1,0.1,0.3,0.1,0.4,0.1c0.1,0,0.3,0,0.4-0.1
			c0.1-0.1,0.1-0.3,0.1-0.5v-5.2h1v5.1c0,0.5-0.1,0.9-0.4,1.3c-0.3,0.3-0.7,0.4-1.2,0.4S108.4,45.9,108.1,45.6L108.1,45.6z"/>
		<path d="M111.6,39.2h1.6c0.5,0,0.9,0.1,1.2,0.4c0.3,0.3,0.4,0.7,0.4,1.2v0.4c0,0.7-0.3,1.2-0.7,1.3l0,0c0.3,0.1,0.4,0.3,0.5,0.5
			c0.1,0.3,0.1,0.5,0.1,0.9v1.2c0,0.1,0,0.4,0,0.5c0,0.1,0,0.3,0.1,0.4h-1c0-0.1,0-0.3-0.1-0.3c0-0.1,0-0.3,0-0.5v-1.2
			c0-0.3,0-0.5-0.1-0.7c-0.1-0.1-0.3-0.1-0.5-0.1h-0.4v2.9h-1L111.6,39.2L111.6,39.2z M113.1,42.1c0.3,0,0.4,0,0.5-0.1
			c0.1-0.1,0.1-0.3,0.1-0.5v-0.5c0-0.3,0-0.4-0.1-0.5c-0.1-0.1-0.3-0.1-0.4-0.1h-0.5v2h0.4V42.1z"/>
		<path d="M117,39.2h1V45h1.7v0.9H117L117,39.2L117,39.2z"/>
		<path d="M120.3,39.2h1V46h-1V39.2z"/>
		<path d="M122.3,39.2h2.8v0.9h-1.7V42h1.3v0.9h-1.3v2.9h-1L122.3,39.2L122.3,39.2z"/>
		<path d="M125.5,39.2h2.9v0.9h-1.8V42h1.4v0.9h-1.4V45h1.8v0.9h-2.9L125.5,39.2L125.5,39.2z"/>
	</g>
</g>
</svg>
